:FULLY-SPECIFIED
:FORCE-ALL-JOINTS-BE-3DOF
:DEGREES
340
root 7.66287 16.0941 -19.8471 9.0888 18.5991 3.53751
lfemur -16.6588 17.7555 -7.15646
ltibia 64.3081 0 0
lfoot -3.93903 -13.6874 0
ltoes 30.0186 0 0
rfemur -41.8254 -17.909 31.8498
rtibia 50.2393 0 0
rfoot -4.09722 6.93768 0
rtoes 5.82214 0 0
lowerback 4.89516 -0.99601 -2.70467
upperback 3.1133 -1.51889 -0.344507
thorax 0.612122 -0.77417 1.28324
lowerneck -6.83002 -6.44247 -0.748089
upperneck -0.335351 -8.64499 6.4599
head 1.48822 -4.21664 1.88126
lclavicle -1.18028e-014 2.28016e-015 0
lhumerus -43.8639 -30.083 101.753
lradius 57.9681 0 0
lwrist 17.8391 0 0
lhand 1.22475 9.57663 0
lfingers 7.12502 0 0
lthumb 26.7277 37.3715 0
rclavicle -1.18028e-014 2.28016e-015 0
rhumerus -37.548 28.7799 -83.6708
rradius 77.7468 0 0
rwrist 3.10555 0 0
rhand -20.1808 -25.9955 0
rfingers 7.12502 0 0
rthumb 6.12393 -774.995 0
341
root 7.62127 16.1138 -19.7276 8.99139 17.3999 3.16527
lfemur -16.6686 17.7159 -6.82951
ltibia 64.6776 0 0
lfoot -3.53385 -13.317 0
ltoes 29.1527 0 0
rfemur -41.4253 -17.8114 31.6812
rtibia 50.0108 0 0
rfoot -4.74283 6.62209 0
rtoes 6.00774 0 0
lowerback 4.74838 -0.929265 -2.52862
upperback 3.05234 -1.41942 -0.230397
thorax 0.62233 -0.723993 1.29455
lowerneck -6.86861 -6.32373 -0.70197
upperneck -0.264549 -8.49165 6.33082
head 1.50024 -4.14014 1.83588
lclavicle -1.11485e-014 2.78297e-015 0
lhumerus -43.9081 -29.7058 101.832
lradius 57.9332 0 0
lwrist 17.7315 0 0
lhand 0.850813 9.51969 0
lfingers 7.12502 0 0
lthumb 26.371 37.3792 0
rclavicle -1.11485e-014 2.78297e-015 0
rhumerus -37.6575 27.5015 -84.117
rradius 77.6408 0 0
rwrist 3.08049 0 0
rhand -20.9581 -26.61 0
rfingers 7.12502 0 0
rthumb 5.37558 -775.657 0
342
root 7.57968 16.1335 -19.6081 8.89397 16.2008 2.79302
lfemur -16.6784 17.6763 -6.50257
ltibia 65.0471 0 0
lfoot -3.12868 -12.9466 0
ltoes 28.2868 0 0
rfemur -41.0253 -17.7138 31.5125
rtibia 49.7823 0 0
rfoot -5.38845 6.30651 0
rtoes 6.19335 0 0
lowerback 4.60161 -0.862519 -2.35258
upperback 2.99137 -1.31995 -0.116286
thorax 0.632539 -0.673817 1.30587
lowerneck -6.9072 -6.20498 -0.655851
upperneck -0.193748 -8.3383 6.20174
head 1.51226 -4.06364 1.7905
lclavicle -1.04942e-014 3.28577e-015 0
lhumerus -43.9523 -29.3286 101.911
lradius 57.8982 0 0
lwrist 17.6238 0 0
lhand 0.476878 9.46274 0
lfingers 7.12502 0 0
lthumb 26.0143 37.3869 0
rclavicle -1.04942e-014 3.28577e-015 0
rhumerus -37.767 26.2232 -84.5633
rradius 77.5348 0 0
rwrist 3.05543 0 0
rhand -21.7354 -27.2245 0
rfingers 7.12502 0 0
rthumb 4.62723 -776.319 0
343
root 7.53808 16.1533 -19.4885 8.79656 15.0016 2.42077
lfemur -16.6882 17.6367 -6.17563
ltibia 65.4165 0 0
lfoot -2.7235 -12.5762 0
ltoes 27.421 0 0
rfemur -40.6253 -17.6162 31.3438
rtibia 49.5539 0 0
rfoot -6.03406 5.99092 0
rtoes 6.37895 0 0
lowerback 4.45483 -0.795773 -2.17653
upperback 2.9304 -1.22049 -0.00217588
thorax 0.642748 -0.62364 1.31718
lowerneck -6.94579 -6.08624 -0.609732
upperneck -0.122946 -8.18496 6.07267
head 1.52429 -3.98714 1.74511
lclavicle -9.83983e-015 3.78858e-015 0
lhumerus -43.9964 -28.9514 101.99
lradius 57.8632 0 0
lwrist 17.5162 0 0
lhand 0.102944 9.4058 0
lfingers 7.12502 0 0
lthumb 25.6576 37.3946 0
rclavicle -9.83983e-015 3.78858e-015 0
rhumerus -37.8764 24.9448 -85.0095
rradius 77.4288 0 0
rwrist 3.03036 0 0
rhand -22.5128 -27.839 0
rfingers 7.12502 0 0
rthumb 3.87887 -776.981 0
